<svg width="32" height="32" viewBox="0 0 32 32" fill="none" xmlns="http://www.w3.org/2000/svg">
<path d="M26.42 9.00003L20.26 3.76003C19.9144 3.4645 19.4785 3.29553 19.024 3.28099C18.5696 3.26645 18.1237 3.4072 17.76 3.68003L15.09 5.68003L13.41 4.00003C13.0353 3.62753 12.5284 3.41844 12 3.41844C11.4716 3.41844 10.9647 3.62753 10.59 4.00003L5.59 9.05003C4.87589 9.14853 4.22112 9.50088 3.74551 10.0426C3.2699 10.5843 3.00525 11.2792 3 12V26C3 26.7957 3.31607 27.5587 3.87868 28.1214C4.44129 28.684 5.20435 29 6 29H26C26.7956 29 27.5587 28.684 28.1213 28.1214C28.6839 27.5587 29 26.7957 29 26V12C29.0072 11.2721 28.7494 10.5663 28.2747 10.0144C27.8 9.46243 27.1408 9.10191 26.42 9.00003ZM27 21H25C24.4696 21 23.9609 20.7893 23.5858 20.4142C23.2107 20.0392 23 19.5305 23 19C23 18.4696 23.2107 17.9609 23.5858 17.5858C23.9609 17.2107 24.4696 17 25 17H27V21ZM19 5.28003L23.3 9.00003H18.41L16.52 7.11003L19 5.28003ZM12 5.41003L15.59 9.00003H8.41L12 5.41003ZM26 27H6C5.73478 27 5.48043 26.8947 5.29289 26.7071C5.10536 26.5196 5 26.2652 5 26V12C5 11.7348 5.10536 11.4805 5.29289 11.2929C5.48043 11.1054 5.73478 11 6 11H26C26.2652 11 26.5196 11.1054 26.7071 11.2929C26.8946 11.4805 27 11.7348 27 12V15H25C23.9391 15 22.9217 15.4215 22.1716 16.1716C21.4214 16.9217 21 17.9392 21 19C21 20.0609 21.4214 21.0783 22.1716 21.8285C22.9217 22.5786 23.9391 23 25 23H27V26C27 26.2652 26.8946 26.5196 26.7071 26.7071C26.5196 26.8947 26.2652 27 26 27Z" fill="#00FFF0"/>
<path d="M24.29 18.29C24.1073 18.4817 24.0037 18.7353 24 19C24 19.2652 24.1054 19.5196 24.2929 19.7071C24.4804 19.8947 24.7348 20 25 20C25.2652 20 25.5196 19.8947 25.7071 19.7071C25.8946 19.5196 26 19.2652 26 19C26.0012 18.8014 25.9431 18.6069 25.8333 18.4414C25.7235 18.2759 25.5669 18.1468 25.3835 18.0706C25.2 17.9945 24.9981 17.9747 24.8033 18.0137C24.6086 18.0528 24.4299 18.149 24.29 18.29Z" fill="#00FFF0"/>
</svg>
